<?xml version="1.0" encoding="UTF-8"?>
<svg width="410px" height="365px" viewBox="0 0 410 365" version="1.1" xmlns="http://www.w3.org/2000/svg" xmlns:xlink="http://www.w3.org/1999/xlink">
  <!-- Generator: Sketch 44.1 (41455) - http://www.bohemiancoding.com/sketch -->
  <title>Group</title>
  <desc>Created with Sketch.</desc>
  <defs>
    <path d="M68.859375,180 L68.859375,154.25 C68.859375,149.083307 69.02604,143.125034 69.359375,136.375 C69.69271,129.624966 70.02604,123.750025 70.359375,118.75 L69.359375,118.75 C67.359365,123.083355 65.2760525,127.499977 63.109375,132 C60.9426975,136.500023 58.69272,140.999977 56.359375,145.5 L35.359375,180 L68.859375,180 Z M121.359375,208 L103.109375,208 L103.109375,246 L68.859375,246 L68.859375,208 L0.109375,208 L0.109375,182.75 L58.109375,87.25 L103.109375,87.25 L103.109375,180 L121.359375,180 L121.359375,208 Z M189.453125,249 C180.953082,249 173.20316,247.208351 166.203125,243.625 C159.20309,240.041649 153.244816,234.750035 148.328125,227.75 C143.411434,220.749965 139.578139,212.083385 136.828125,201.75 C134.078111,191.416615 132.703125,179.500068 132.703125,166 C132.703125,152.499932 134.078111,140.666718 136.828125,130.5 C139.578139,120.333282 143.411434,111.791701 148.328125,104.875 C153.244816,97.9582988 159.20309,92.7916838 166.203125,89.375 C173.20316,85.9583162 180.953082,84.25 189.453125,84.25 C197.953168,84.25 205.70309,85.9583162 212.703125,89.375 C219.70316,92.7916838 225.661434,97.9582988 230.578125,104.875 C235.494816,111.791701 239.328111,120.333282 242.078125,130.5 C244.828139,140.666718 246.203125,152.499932 246.203125,166 C246.203125,179.500068 244.828139,191.416615 242.078125,201.75 C239.328111,212.083385 235.494816,220.749965 230.578125,227.75 C225.661434,234.750035 219.70316,240.041649 212.703125,243.625 C205.70309,247.208351 197.953168,249 189.453125,249 Z M189.453125,220.5 C192.619807,220.5 195.536445,219.708341 198.203125,218.125 C200.869805,216.541659 203.203115,213.666687 205.203125,209.5 C207.203135,205.333313 208.744786,199.750035 209.828125,192.75 C210.911464,185.749965 211.453125,176.833388 211.453125,166 C211.453125,155.166613 210.911464,146.291701 209.828125,139.375 C208.744786,132.458299 207.203135,127.041686 205.203125,123.125 C203.203115,119.208314 200.869805,116.500008 198.203125,115 C195.536445,113.499992 192.619807,112.75 189.453125,112.75 C186.45311,112.75 183.619805,113.499992 180.953125,115 C178.286445,116.500008 175.953135,119.208314 173.953125,123.125 C171.953115,127.041686 170.369798,132.458299 169.203125,139.375 C168.036452,146.291701 167.453125,155.166613 167.453125,166 C167.453125,176.833388 168.036452,185.749965 169.203125,192.75 C170.369798,199.750035 171.953115,205.333313 173.953125,209.5 C175.953135,213.666687 178.286445,216.541659 180.953125,218.125 C183.619805,219.708341 186.45311,220.5 189.453125,220.5 Z M325.046875,180 L325.046875,154.25 C325.046875,149.083307 325.21354,143.125034 325.546875,136.375 C325.88021,129.624966 326.21354,123.750025 326.546875,118.75 L325.546875,118.75 C323.546865,123.083355 321.463552,127.499977 319.296875,132 C317.130198,136.500023 314.88022,140.999977 312.546875,145.5 L291.546875,180 L325.046875,180 Z M377.546875,208 L359.296875,208 L359.296875,246 L325.046875,246 L325.046875,208 L256.296875,208 L256.296875,182.75 L314.296875,87.25 L359.296875,87.25 L359.296875,180 L377.546875,180 L377.546875,208 Z" id="path-1"></path>
    <filter x="-6.8%" y="-13.7%" width="113.5%" height="131.0%" filterUnits="objectBoundingBox" id="filter-2">
      <feOffset dx="0" dy="3" in="SourceAlpha" result="shadowOffsetOuter1"></feOffset>
      <feGaussianBlur stdDeviation="8" in="shadowOffsetOuter1" result="shadowBlurOuter1"></feGaussianBlur>
      <feColorMatrix values="0 0 0 0 0   0 0 0 0 0   0 0 0 0 0  0 0 0 0.0579427083 0" type="matrix" in="shadowBlurOuter1"></feColorMatrix>
    </filter>
  </defs>
  <g id="Page-1" stroke="none" stroke-width="1" fill="none" fill-rule="evenodd">
    <g id="500---Generic-Copy-4" transform="translate(-517.000000, -251.000000)">
      <g id="Group" transform="translate(533.000000, 251.000000)">
        <g id="404">
          <use fill="black" fill-opacity="1" filter="url(#filter-2)" xlink:href="#path-1"></use>
          <use fill="#51516F" fill-rule="evenodd" xlink:href="#path-1"></use>
        </g>
        <path d="M140,36.9997772 C140,51.9117115 127.911712,64 112.999777,64 C98.0882885,64 86,51.9117115 86,36.9997772 C86,22.0882885 98.0882885,10 112.999777,10 C127.911712,10 140,22.0882885 140,36.9997772" id="Fill-3" fill="#D1D1E8"></path>
        <path d="M113,23.5002293 C113,26.5376214 110.537519,29 107.5,29 C104.462481,29 102,26.5376214 102,23.5002293 C102,20.4623786 104.462481,18 107.5,18 C110.537519,18 113,20.4623786 113,23.5002293" id="Fill-4" fill="#B3B3D4"></path>
        <path d="M107,38.5 C107,42.0896507 104.089651,45 100.5,45 C96.9103493,45 94,42.0896507 94,38.5 C94,34.9099093 96.9103493,32 100.5,32 C104.089651,32 107,34.9099093 107,38.5" id="Fill-5" fill="#B3B3D4"></path>
        <path d="M121,35.5 C121,37.4331554 119.433053,39 117.500228,39 C115.566947,39 114,37.4331554 114,35.5 C114,33.5673002 115.566947,32 117.500228,32 C119.433053,32 121,33.5673002 121,35.5" id="Fill-6" fill="#B3B3D4"></path>
        <path d="M294,246 C294,244.895368 294.895368,244 296,244 C297.104632,244 298,244.895368 298,246 C298,247.104632 297.104632,248 296,248 C294.895368,248 294,247.104632 294,246" id="Fill-7" fill="#B3B3D4"></path>
        <path d="M25,185 C25,183.895368 25.895689,183 26.9997932,183 C28.104311,183 29,183.895368 29,185 C29,186.104632 28.104311,187 26.9997932,187 C25.895689,187 25,186.104632 25,185" id="Fill-8" fill="#B3B3D4"></path>
        <path d="M92,91 C92,89.8953681 92.8953681,89 94,89 C95.1046319,89 96,89.8953681 96,91 C96,92.1046319 95.1046319,93 94,93 C92.8953681,93 92,92.1046319 92,91" id="Fill-9" fill="#B3B3D4"></path>
        <path d="M334,115 C334,113.895368 334.895689,113 336.000207,113 C337.104724,113 338,113.895368 338,115 C338,116.104632 337.104724,117 336.000207,117 C334.895689,117 334,116.104632 334,115" id="Fill-10" fill="#B3B3D4"></path>
        <path d="M209,261.000227 C209,259.895685 209.895232,259 210.999773,259 C212.104315,259 213,259.895685 213,261.000227 C213,262.104768 212.104315,263 210.999773,263 C209.895232,263 209,262.104768 209,261.000227" id="Fill-11" fill="#B3B3D4"></path>
        <path d="M48,66.5 C48,65.6718697 48.6718697,65 49.5,65 C50.3286393,65 51,65.6718697 51,66.5 C51,67.3286393 50.3286393,68 49.5,68 C48.6718697,68 48,67.3286393 48,66.5" id="Fill-12" fill="#B3B3D4"></path>
        <path d="M267,37.5 C267,36.6718697 267.671361,36 268.5,36 C269.32813,36 270,36.6718697 270,37.5 C270,38.3286393 269.32813,39 268.5,39 C267.671361,39 267,38.3286393 267,37.5" id="Fill-13" fill="#B3B3D4"></path>
        <path d="M277,171.5 C277,170.671361 277.671361,170 278.5,170 C279.32813,170 280,170.671361 280,171.5 C280,172.32813 279.32813,173 278.5,173 C277.671361,173 277,172.32813 277,171.5" id="Fill-14" fill="#B3B3D4"></path>
        <path d="M41,254.499491 C41,253.671361 41.6718697,253 42.5,253 C43.3286393,253 44,253.671361 44,254.499491 C44,255.32813 43.3286393,256 42.5,256 C41.6718697,256 41,255.32813 41,254.499491" id="Fill-15" fill="#B3B3D4"></path>
        <path d="M296.243441,291 L66.7570055,291 C61.9404961,291 58,294.958004 58,299.795464 C58,304.632925 61.9404961,308.590929 66.7570055,308.590929 L113.527894,308.590929 C117.390214,308.590929 120.550741,311.765498 120.550741,315.644979 C120.550741,319.52446 117.390214,322.69903 113.527894,322.69903 L87.1697672,322.69903 C83.5513544,322.971841 80.6735995,326.02885 80.6735995,329.730645 C80.6735995,333.610126 83.8341267,336.784247 87.6964472,336.784247 L138.313574,336.784247 C138.108531,336.784247 137.905721,336.795464 137.705145,336.812964 L139.85207,336.812964 C143.714837,336.812964 146.874917,339.987085 146.874917,343.866566 C146.874917,347.746047 143.714837,350.920616 139.85207,350.920616 L117.486705,350.920616 C113.90671,351.232913 111.072734,354.272423 111.072734,357.94595 C111.072734,361.825431 114.232814,365 118.095135,365 L246.654658,365 C250.516979,365 253.677506,361.825431 253.677506,357.94595 C253.677506,354.272423 250.843529,351.232913 247.263088,350.920616 L221.71218,350.920616 C217.849859,350.920616 214.689779,347.746047 214.689779,343.866566 C214.689779,339.987085 217.849859,336.812964 221.71218,336.812964 L222.44435,336.812964 C222.243774,336.795464 222.040964,336.784247 221.835921,336.784247 L275.949953,336.784247 C279.812274,336.784247 282.972354,333.610126 282.972354,329.730645 C282.972354,326.02885 280.095046,322.971841 276.476187,322.69903 L264.476458,322.69903 C264.299111,322.69903 264.123998,322.690056 263.949778,322.676595 L263.004523,322.676595 C263.153727,322.665377 263.299804,322.642493 263.446327,322.621853 C260.067802,322.117512 257.454057,319.173126 257.454057,315.644979 C257.454057,312.106064 260.083883,309.155397 263.47715,308.664067 C263.1506,308.616954 262.817349,308.590929 262.477843,308.590929 L296.243441,308.590929 C301.059504,308.590929 305,304.632925 305,299.795464 C305,294.958004 301.059504,291 296.243441,291" id="Fill-16" fill="#51516F"></path>
        <path d="M275.549009,351 L268.450991,351 C264.903103,351 262,353.899159 262,357.442228 L262,358.557324 C262,362.100841 264.903103,365 268.450991,365 L275.549009,365 C279.097345,365 282,362.100841 282,358.557324 L282,357.442228 C282,353.899159 279.097345,351 275.549009,351" id="Fill-17" fill="#51516F"></path>
        <path d="M330.877125,74.6438138 C327.766623,75.1250549 327.125254,75.7663995 326.643994,78.8767809 C326.61886,79.041073 326.381489,79.041073 326.35589,78.8767809 C325.875095,75.7663995 325.233726,75.1250549 322.123224,74.6438138 C321.958925,74.6186813 321.958925,74.3813187 322.123224,74.3561862 C325.233726,73.8749451 325.875095,73.2336005 326.35589,70.1232191 C326.381489,69.958927 326.61886,69.958927 326.643994,70.1232191 C327.125254,73.2336005 327.766623,73.8749451 330.877125,74.3561862 C331.040958,74.3813187 331.040958,74.6186813 330.877125,74.6438138" id="Fill-18" fill="#B3B3D4"></path>
        <path d="M187.82236,11.7082014 C183.329331,12.4030659 182.403002,13.3289538 181.708144,17.8220223 C181.67136,18.0593259 181.32864,18.0593259 181.291856,17.8220223 C180.596998,13.3289538 179.670669,12.4030659 175.17764,11.7082014 C174.940787,11.6714171 174.940787,11.328695 175.17764,11.2919107 C179.670669,10.5970462 180.596998,9.67070972 181.291856,5.17764128 C181.32864,4.94078624 181.67136,4.94078624 181.708144,5.17764128 C182.403002,9.67070972 183.329331,10.5970462 187.82236,11.2919107 C188.059213,11.328695 188.059213,11.6714171 187.82236,11.7082014" id="Fill-19" fill="#B3B3D4"></path>
        <path d="M298.877054,132.643759 C295.766323,133.125123 295.125355,133.766509 294.643979,136.876732 C294.618826,137.041089 294.381607,137.041089 294.356021,136.876732 C293.875078,133.766509 293.233677,133.125123 290.122946,132.643759 C289.959018,132.618607 289.959018,132.381393 290.122946,132.355807 C293.233677,131.874877 293.875078,131.233491 294.356021,128.123268 C294.381607,127.958911 294.618826,127.958911 294.643979,128.123268 C295.125355,131.233491 295.766323,131.874877 298.877054,132.355807 C299.040982,132.381393 299.040982,132.618607 298.877054,132.643759" id="Fill-20" fill="#B3B3D4"></path>
        <path d="M197.007248,188.144724 L91.2112465,152.593596 L228.136379,83.4514368 L197.007248,188.144724 Z M238,5.14666651 L236.080073,4 L215.854393,37.7455868 L228.609761,80.7091752 L88.3861659,151.517507 L34.2026951,117.03264 L33,118.916353 L86.0653402,152.689635 L85.4331199,153.009022 L198.491825,191 L231.757887,79.119387 L230.638414,79.6849031 L218.278575,38.0511263 L238,5.14666651 Z" id="Fill-21" fill="#6B6B88"></path>
        <path d="M94.836,153.192 C90.6884444,153.833333 89.8333333,154.688444 89.192,158.836 C89.1582222,159.054667 88.8417778,159.054667 88.808,158.836 C88.1662222,154.688444 87.3115556,153.833333 83.164,153.192 C82.9453333,153.158222 82.9453333,152.841778 83.164,152.808 C87.3115556,152.166222 88.1662222,151.311556 88.808,147.164 C88.8417778,146.945333 89.1582222,146.945333 89.192,147.164 C89.8333333,151.311556 90.6884444,152.166222 94.836,152.808 C95.0546667,152.841778 95.0546667,153.158222 94.836,153.192" id="Fill-22" fill="#FFFFFF"></path>
        <path d="M38.8771268,118.643994 C35.7661995,119.125254 35.1253038,119.766623 34.6440503,122.877125 C34.6184517,123.040958 34.3810829,123.040958 34.3559497,122.877125 C33.8746962,119.766623 33.2333351,119.125254 30.1228732,118.643994 C29.9590423,118.61886 29.9590423,118.381489 30.1228732,118.35589 C33.2333351,117.875095 33.8746962,117.233726 34.3559497,114.123224 C34.3810829,113.958925 34.6184517,113.958925 34.6440503,114.123224 C35.1253038,117.233726 35.7661995,117.875095 38.8771268,118.35589 C39.0409577,118.381489 39.0409577,118.61886 38.8771268,118.643994" id="Fill-23" fill="#FFFFFF"></path>
        <path d="M221.877127,37.6440503 C218.7662,38.1253038 218.125304,38.7661995 217.64405,41.8771268 C217.618452,42.0409577 217.381548,42.0409577 217.35595,41.8771268 C216.874696,38.7661995 216.2338,38.1253038 213.122873,37.6440503 C212.959042,37.6184517 212.959042,37.3815483 213.122873,37.3559497 C216.2338,36.8746962 216.874696,36.2338005 217.35595,33.1228732 C217.381548,32.9590423 217.618452,32.9590423 217.64405,33.1228732 C218.125304,36.2338005 218.7662,36.8746962 221.877127,37.3559497 C222.040958,37.3815483 222.040958,37.6184517 221.877127,37.6440503" id="Fill-24" fill="#FFFFFF"></path>
        <path d="M241.877146,4.64406716 C238.766203,5.12504727 238.125047,5.76620283 237.644067,8.87714588 C237.618657,9.04095137 237.381343,9.04095137 237.355933,8.87714588 C236.874953,5.76620283 236.233797,5.12504727 233.122854,4.64406716 C232.959049,4.61865689 232.959049,4.38134311 233.122854,4.35593284 C236.233797,3.87495273 236.874953,3.23379717 237.355933,0.122854118 C237.381343,-0.0409513726 237.618657,-0.0409513726 237.644067,0.122854118 C238.125047,3.23379717 238.766203,3.87495273 241.877146,4.35593284 C242.040951,4.38134311 242.040951,4.61865689 241.877146,4.64406716" id="Fill-25" fill="#FFFFFF"></path>
        <path d="M238.867139,76.6286169 C233.186332,80.8969142 232.592281,82.8557199 234.944635,89.5607096 C235.068745,89.9140455 234.596596,90.1666806 234.371342,89.8672285 C230.103008,84.1864711 228.144185,83.5924252 221.439578,85.9447587 C221.085797,86.0688679 220.83316,85.5962812 221.133056,85.3714713 C226.813422,81.103174 227.407915,79.1439266 225.055561,72.4393786 C224.93145,72.085601 225.4036,71.8334075 225.628853,72.1328597 C229.896746,77.8136171 231.856011,78.407663 238.560618,76.0553295 C238.914398,75.9312203 239.166594,76.4033653 238.867139,76.6286169" id="Fill-26" fill="#FFFFFF"></path>
        <path d="M203.822359,189.708201 C199.32929,190.403066 198.402954,191.328954 197.708089,195.822022 C197.671305,196.059326 197.328583,196.059326 197.292247,195.822022 C196.596934,191.328954 195.670598,190.403066 191.177978,189.708201 C190.940674,189.671417 190.940674,189.328695 191.177978,189.291911 C195.670598,188.597046 196.596934,187.67071 197.292247,183.177641 C197.328583,182.940786 197.671305,182.940786 197.708089,183.177641 C198.402954,187.67071 199.32929,188.597046 203.822359,189.291911 C204.059214,189.328695 204.059214,189.671417 203.822359,189.708201" id="Fill-27" fill="#FFFFFF"></path>
        <path d="M349.904213,159.611972 C347.484606,159.986378 346.985988,160.485004 346.612025,162.904211 C346.592343,163.03193 346.407767,163.03193 346.388084,162.904211 C346.013684,160.485004 345.515066,159.986378 343.095459,159.611972 C342.96818,159.592289 342.96818,159.407711 343.095459,159.388028 C345.515066,159.013622 346.013684,158.514996 346.388084,156.095789 C346.407767,155.96807 346.592343,155.96807 346.612025,156.095789 C346.985988,158.514996 347.484606,159.013622 349.904213,159.388028 C350.031929,159.407711 350.031929,159.592289 349.904213,159.611972" id="Fill-29" fill="#B3B3D4"></path>
        <polygon id="Fill-31" fill="#E9E9FA" points="237 288 244 288 244 153 237 153"></polygon>
        <polygon id="Fill-32" fill="#D1D1E8" points="237 288 241 288 241 153 237 153"></polygon>
        <polygon id="Fill-33" fill="#D1D1E8" points="241 291 249 291 249 288 241 288"></polygon>
        <polygon id="Fill-34" fill="#B3B3D4" points="233 291 241 291 241 288 233 288"></polygon>
        <polygon id="Fill-37" fill="#D1D1E8" points="161.369169 290.032471 168.036133 290.032471 242 153 235.333036 153 164 285"></polygon>
        <polygon id="Fill-38" fill="#E9E9FA" points="165.835194 289.433105 168.413086 289.433105 242 153 239.422108 153 168 285"></polygon>
        <polygon id="Fill-39" fill="#D1D1E8" points="166 291 174 291 174 288 166 288"></polygon>
        <polygon id="Fill-40" fill="#B3B3D4" points="158 291 166 291 166 288 158 288"></polygon>
        <polyline id="Fill-43" fill="#D1D1E8" points="282.068848 289.078613 275.380279 289.078613 243 153 249.688569 153 281 285"></polyline>
        <polyline id="Fill-44" fill="#E9E9FA" points="281.900879 288.593262 279.309655 288.593262 247 153 249.591224 153 281 285"></polyline>
        <polygon id="Fill-47" fill="#B3B3D4" points="272 291 279 291 279 288 272 288"></polygon>
        <polygon id="Fill-48" fill="#D1D1E8" points="279 291 286 291 286 288 279 288"></polygon>
        <path d="M248,150 L248,135.51791 C248,131.382858 244.624754,128 240.5,128 C236.374799,128 233,131.382858 233,135.51791 L233,150 L248,150" id="Fill-49" fill="#B3B3D4"></path>
        <path d="M255,162 L255,161.406028 C255,153.482713 248.475,147 240.5,147 C232.525,147 226,153.482713 226,161.406028 L226,162 L255,162" id="Fill-50" fill="#D1D1E8"></path>
        <path d="M249,162 L249,161.683083 C249,157.457667 245.400157,154 241,154 C236.600291,154 233,157.457667 233,161.683083 L233,162 L249,162" id="Fill-51" fill="#E9E9FA"></path>
        <path d="M255.976239,166 L226.02331,166 C224.910331,166 224,165.100256 224,163.999777 C224,162.899744 224.910331,162 226.02331,162 L255.976239,162 C257.089217,162 258,162.899744 258,163.999777 C258,165.100256 257.089217,166 255.976239,166" id="Fill-52" fill="#FFFFFF"></path>
        <polygon id="Fill-53" fill="#B3B3D4" points="195.94751 130.096924 210.013396 121 217 136.562387 200.076613 141"></polygon>
        <polygon id="Fill-54" fill="#D1D1E8" points="197.813232 135.40686 196.044434 130.01709 208.569254 121 212 129.008467 197.994385 135.62085"></polygon>
        <polygon id="Fill-55" fill="#B3B3D4" points="170.995605 143.045532 191.991455 128.052979 199.067261 145.055786 174.012437 151"></polygon>
        <polyline id="Fill-57" fill="#E9E9FA" points="276 108.846774 270.260322 96 211 122.152778 216.739228 135 276 108.846774"></polyline>
        <polyline id="Fill-58" fill="#B3B3D4" points="276 109.790554 273.878238 105 215 131.208997 217.121762 136 276 109.790554"></polyline>
        <polyline id="Fill-59" fill="#D1D1E8" points="271.894943 113 265 96.9544959 280.105057 90 287 106.04596 271.894943 113"></polyline>
        <polyline id="Fill-60" fill="#FFFFFF" points="268.530889 105 265 96.9649545 280.469563 90 284 98.0350455 268.530889 105"></polyline>
        <polygon id="Fill-61" fill="#D1D1E8" points="283.527015 84 278 86.4760876 287.473428 108 293 105.524359"></polygon>
        <polyline id="Fill-62" fill="#FFFFFF" points="288 94.5688346 283.385113 84 278 86.4316042 282.614887 97 288 94.5688346"></polyline>
        <polyline id="Fill-63" fill="#D1D1E8" points="220 139.524313 210.527015 118 205 120.475687 214.472985 142 220 139.524313"></polyline>
        <polyline id="Fill-64" fill="#FFFFFF" points="215 128.568753 210.385113 118 205 120.431247 209.614887 131 215 128.568753"></polyline>
        <polygon id="Fill-65" fill="#B3B3D4" points="196.079041 130.100708 200.158081 141.006226 199.001099 145.099976 191.917358 128.015625"></polygon>
        <path d="M244.959575,127.516289 L250,125.302414 L244.927412,114 L221,124.510528 L226.072588,135.812942 L232.384105,133.040669 L234.589263,137.954216 C236.131242,141.389755 240.196379,142.938123 243.669005,141.412611 C247.14163,139.887547 248.706712,135.865376 247.165185,132.429836 L244.959575,127.516289" id="Fill-67" fill="#D1D1E8"></path>
        <polygon id="Polygon" stroke="#E9E9FA" fill="#D1D1E8" points="240.5 132 242.665064 133.25 242.665064 135.75 240.5 137 238.334936 135.75 238.334936 133.25"></polygon>
        <polygon id="Fill-56" fill="#E9E9FA" points="172.476074 147.071411 170.98877 143.023071 191.978882 127.977661 195.546143 136.369385"></polygon>
      </g>
    </g>
  </g>
</svg>
