<?xml version="1.0" standalone="no"?>
<!DOCTYPE svg PUBLIC "-//W3C//DTD SVG 20010904//EN"
 "http://www.w3.org/TR/2001/REC-SVG-20010904/DTD/svg10.dtd">
<svg version="1.0" xmlns="http://www.w3.org/2000/svg"
 width="260.000000pt" height="260.000000pt" viewBox="0 0 260.000000 260.000000"
 preserveAspectRatio="xMidYMid meet">
<metadata>
Created by potrace 1.11, written by Peter Selinger 2001-2013
</metadata>
<g transform="translate(0.000000,260.000000) scale(0.100000,-0.100000)"
fill="#000000" stroke="none">
<path d="M1265 2312 c-16 -10 -50 -30 -75 -44 -25 -14 -187 -106 -360 -204
-173 -99 -431 -245 -572 -324 l-258 -145 1 -594 c0 -566 1 -595 19 -631 38
-75 116 -117 198 -106 28 4 84 28 146 63 88 49 172 97 356 201 473 268 577
325 585 325 6 -1 98 -51 205 -113 107 -62 215 -124 240 -138 25 -14 87 -49
138 -78 52 -30 96 -54 99 -54 3 0 17 -8 31 -18 15 -11 52 -33 82 -49 30 -17
97 -54 148 -83 59 -33 110 -54 138 -58 88 -10 180 51 204 135 7 26 10 221 8
618 l-3 580 -154 88 c-84 48 -183 104 -220 124 -36 20 -82 46 -101 58 -19 12
-60 35 -90 52 -30 16 -207 116 -393 221 -185 106 -338 192 -340 192 -1 0 -15
-8 -32 -18z"/>
</g>
</svg>
